<svg xmlns="http://www.w3.org/2000/svg" viewBox="0 0 1236.84 309.36"><defs><style>.cls-1{fill:#fff;}.cls-2{fill:#c6c6c6;}</style></defs><g id="Layer_2" data-name="Layer 2"><g id="Layer_1-2" data-name="Layer 1"><path class="cls-1" d="M362.13,241.05V121.34h14.18v15h.17q10.32-16.08,30.27-16.08,18,0,29.75,12.59t11.73,31.63q0,19.05-11.81,31t-29.67,12q-20.12,0-30.27-15.73h-.17v49.28Zm42.7-46.49q12.76,0,20.91-8.56t8.14-21.49q0-13.8-8.4-22.55a27.74,27.74,0,0,0-20.83-8.73q-12.76,0-20.91,9t-8.13,22.28q0,13.28,8.4,21.67A28.3,28.3,0,0,0,404.83,194.56Z"/><path class="cls-1" d="M505.45,207.5q-17.85,0-29.66-12t-11.81-31q0-19,11.72-31.63t29.75-12.59a35.6,35.6,0,0,1,17.32,4.29,31.86,31.86,0,0,1,12.43,12l.35-.18v-15h14.17v85.11H536.07V191.07h-.17Q525.92,207.5,505.45,207.5Zm2.1-12.94a27.32,27.32,0,0,0,20.3-8.38q8.22-8.4,8.22-21.67T528,142.23a26.26,26.26,0,0,0-20.47-9A27.74,27.74,0,0,0,486.72,142q-8.4,8.74-8.4,22.55,0,12.93,8.14,21.49T507.55,194.56Z"/><path class="cls-1" d="M612.89,242.1a66,66,0,0,1-34.65-9.26l3.5-12.59q15.57,8.91,30.62,8.92,13.83,0,21.18-7.08t7.35-18.44V190h-.35Q630.2,204.87,611,204.87q-17.67,0-29.48-11.7t-11.81-30.41q0-18.34,11.46-30.41t29.31-12.06q19.06,0,29.92,14.68h.35V121.34h14.18v78.82q0,19.4-10.33,30.67T612.89,242.1Zm-.18-50.33q12.78,0,20.65-8.39t7.88-21.32q0-12.59-8.14-20.62a27.6,27.6,0,0,0-20.21-8q-12.78,0-20.82,8.21T584,162.41q0,13.29,8.13,21.32T612.71,191.77Z"/><path class="cls-1" d="M718.93,207.5q-19.6,0-31.85-12.41T674.83,164q0-18.69,12.25-31.19t31.85-12.5q19.07,0,31.5,12.24T762.85,164q0,19.23-12.42,31.37T718.93,207.5Zm0-12.94A28.28,28.28,0,0,0,739.84,186q8.49-8.55,8.49-22t-8.49-22.1a28.14,28.14,0,0,0-20.91-8.65q-13.12,0-21.35,8.91T689.36,164q0,12.95,8.31,21.76T718.93,194.56Z"/><path class="cls-1" d="M830,207.5q-18,0-29.93-12t-11.9-31q0-18.87,11.9-31.55t29.75-12.67q20.29,0,30.45,16.26h.17V77.83h14.18V206.45H861V190.72h-.18Q850.82,207.49,830,207.5Zm1.92-12.94a28.1,28.1,0,0,0,20.65-8.38q8.4-8.4,8.4-21.67t-8.14-22.28a26.72,26.72,0,0,0-20.74-9A28,28,0,0,0,811.18,142q-8.49,8.74-8.48,22.55,0,12.93,8.13,21.49T831.92,194.56Z"/><path class="cls-1" d="M916.61,102.82a10.58,10.58,0,0,1-14.7,0,10.13,10.13,0,0,1,0-14.33,10.58,10.58,0,0,1,14.7,0,10.1,10.1,0,0,1,0,14.33ZM902.09,206.45V121.34h14.17v85.11Z"/><path class="cls-1" d="M979.78,207.5q-17.85,0-29.66-12t-11.81-31q0-19,11.73-31.63t29.74-12.59a35.64,35.64,0,0,1,17.33,4.29,31.76,31.76,0,0,1,12.42,12l.35-.18v-15h14.18v85.11h-13.65V191.07h-.18Q1000.26,207.5,979.78,207.5Zm2.1-12.94a27.3,27.3,0,0,0,20.3-8.38q8.22-8.4,8.23-21.67t-8-22.28a26.27,26.27,0,0,0-20.48-9A27.73,27.73,0,0,0,961.06,142q-8.4,8.74-8.4,22.55,0,12.93,8.14,21.49T981.88,194.56Z"/><path class="cls-1" d="M1049.6,206.45V121.34h14.18V136.9h.35q9.8-16.61,27.64-16.61a25.63,25.63,0,0,1,3.5.18V136.2c-2.8-.23-4.66-.35-5.6-.35q-11.89,0-18.89,8.21t-7,21.32v41.07Z"/><path class="cls-1" d="M1127,102.82a10.58,10.58,0,0,1-14.7,0,10.1,10.1,0,0,1,0-14.33,10.58,10.58,0,0,1,14.7,0,10.13,10.13,0,0,1,0,14.33Zm-14.53,103.63V121.34h14.18v85.11Z"/><path class="cls-1" d="M1192.92,207.5q-19.61,0-31.85-12.41T1148.82,164q0-18.69,12.25-31.19t31.85-12.5q19.07,0,31.49,12.24T1236.84,164q0,19.23-12.43,31.37T1192.92,207.5Zm0-12.94a28.28,28.28,0,0,0,20.91-8.56q8.49-8.55,8.48-22t-8.48-22.1a28.14,28.14,0,0,0-20.91-8.65q-13.12,0-21.35,8.91T1163.34,164q0,12.95,8.32,21.76T1192.92,194.56Z"/><path class="cls-2" d="M225.29,135.56C216.66,104,191,80.72,160.5,76.89,123.06,72.19,92,98.56,80.19,126.61c-12.57,29.84-2,58.2,2.54,70.18,14.23,38,44.66,55.57,54,60.44a113.26,113.26,0,0,0,64.76,12c9-1,41.47-5.13,68.56-33.14,25.55-26.41,30.31-66,31.43-75.78-1.08,14.1-5.33,53.23-26.35,83.9a153.08,153.08,0,0,1-66.34,53.61,148.52,148.52,0,0,1-63.49,11.37c-63.57-3-102.88-47.44-107.6-53C29.4,246.61-2.83,207.74.2,152c.73-13.46,3-47.12,28.57-76.36C31.93,72,65.41,34.9,117.65,37.25c42.6,1.92,81.19,29.3,100.31,70.51Z"/><path class="cls-1" d="M76.29,174.68c1.3-.58,6.55,27.59,29.53,44.84,16.88,12.67,41.49,18.07,65.07,11,3-.88,33.18-10.43,47.61-41.59,8.08-17.45,7.3-33.23,6.67-43.54-2.25-36.67-22.41-61.55-27.3-67.26-35.85-41.77-87.54-40.12-90.78-40-55,2.7-84.94,46.06-89.52,53-10.65,16-13.31,32.32-15.49,42.57C10.39,77.44,45.05,29.35,96,9.62c52.25-20.25,105-5.7,138.71,17.54C259.2,44.07,273.27,65.35,278.5,74c6.07,10,19.78,33.13,22.22,66.28,1,13.45,3.77,51.31-21.59,85.46-20.62,27.77-48.42,37.95-62.21,41.59A113.09,113.09,0,0,1,154.7,266c-34.61-11-53-35.66-58.41-43.21C79.45,199.41,75.09,175.21,76.29,174.68Z"/></g></g></svg>